<?xml version="1.0" encoding="utf-8" ?><svg xmlns="http://www.w3.org/2000/svg" xmlns:xlink="http://www.w3.org/1999/xlink" width="1024" height="1024" viewBox="0 0 1024 1024"><path fill="#194955" d="M91.3064 200.549C107.12 201.018 125.329 200.505 141.306 200.437L219.156 200.452C274.036 200.447 323.306 196.408 372.984 224.767C395.455 237.594 404.913 248.177 423.644 264.743C439.489 276.581 462.636 297.896 475.606 312.891C498.899 339.823 519.016 379.983 524.184 415.5L524.246 415.929C524.518 421.118 524.552 426.554 524.487 431.755C524.278 448.189 524.87 464.828 524.092 481.233C514.842 534.044 484.392 576.114 440.746 606.296C430.037 613.702 420.416 618.545 409.9 625.186L508.545 759.174C523.853 780.166 539.069 801.075 553.709 822.556C555.839 825.681 558.218 828.685 560.276 831.859C506.017 831.562 451.756 831.584 397.497 831.926C390.694 821.998 382.297 811.208 375.091 801.487C359.153 780.245 343.358 758.896 327.708 737.442C307.198 709.295 286.978 680.895 266.557 652.687C263.907 649.027 261.147 645.363 258.326 641.833C259.409 650.987 259.121 661.184 259.096 670.464L259.025 707.583L259.008 831.784C221.282 831.926 183.555 831.852 145.83 831.561C139.855 825.307 93.2719 776.089 91.8168 772.533C92.4119 763.313 91.9068 748.198 91.8152 738.694L91.4893 682.117C91.2775 672.701 91.0838 661.299 91.4173 651.98C92.0803 636.03 91.7994 617.958 91.8379 601.894L91.8125 527.453L91.3064 200.549Z"/><path fill="#EB4F3F" d="M91.3064 200.549C107.12 201.018 125.329 200.505 141.306 200.437L219.156 200.452C274.036 200.447 323.306 196.408 372.984 224.767C395.455 237.594 404.913 248.177 423.644 264.743C424.633 266.849 428.969 271.893 430.767 273.975C436.704 280.852 441.232 288.345 445.502 296.358C471.22 344.634 476.721 401.146 460.795 453.476C453.462 476.981 441.968 497.608 425.802 516.122C423.781 518.438 417.492 525.826 415.204 527.219C409.337 526.144 390.708 526.78 383.564 526.832L325.915 527.03L91.8125 527.453L91.3064 200.549Z"/><path fill="#194955" d="M189.432 299.03C210.01 299.395 231.016 298.823 251.623 299.078C263.282 299.222 276.129 298.755 287.671 299.86C310.336 302.031 331.655 311.607 346.213 329.465C356.791 342.442 362.154 354.962 366.083 371.076C366.869 374.297 368.138 378.983 367.842 382.103C370.51 386.672 369.004 406.783 368.388 412.847C365.85 437.818 350.395 458.388 329.145 471.019C307.878 483.661 282.348 482.587 258.422 481.937C236.684 481.282 211.45 481.917 189.454 481.961L189.432 299.03Z"/><path fill="#FEAE3A" d="M91.8125 527.453L325.915 527.03L383.564 526.832C390.708 526.78 409.337 526.144 415.204 527.219C387.467 553.059 370.021 560.304 334.987 572.557C338.71 577.802 343.552 583.766 346.891 588.983C335.275 589.556 321.614 589.187 309.758 589.218L235.472 589.223L231.934 584.966C217.978 585.057 202.934 585.305 189.006 584.865L189.087 652.02C189.191 662.108 188.998 672.328 189.14 682.347L91.4893 682.117C91.2775 672.701 91.0838 661.299 91.4173 651.98C92.0803 636.03 91.7994 617.958 91.8379 601.894L91.8125 527.453Z"/><path fill="#EB4F3F" d="M91.4173 651.98L189.087 652.02C189.191 662.108 188.998 672.328 189.14 682.347L91.4893 682.117C91.2775 672.701 91.0838 661.299 91.4173 651.98Z"/><path fill="#FEAE3A" d="M346.891 588.983C352.806 596.266 362.896 609.473 367.84 617.347L443.835 719.32L470.351 754.338C474.503 759.913 479.604 766.005 483.037 771.989L366.19 771.96C358.179 759.86 348.481 747.776 339.925 735.973L275.602 647.148C268.789 637.56 260.183 626.872 254.032 617.134C247.488 608.159 241.413 598.606 235.472 589.223L309.758 589.218C321.614 589.187 335.275 589.556 346.891 588.983Z"/><path fill="#EB4F3F" d="M346.891 588.983C352.806 596.266 362.896 609.473 367.84 617.347C341.376 616.742 314.479 617.202 287.967 616.891C283.506 616.839 256.897 616.455 254.032 617.134C247.488 608.159 241.413 598.606 235.472 589.223L309.758 589.218C321.614 589.187 335.275 589.556 346.891 588.983Z"/><path fill="#FEAE3A" d="M91.4893 682.117L189.14 682.347L188.989 772.336L124.78 772.263C115.309 772.262 100.614 771.871 91.8168 772.533C92.4119 763.313 91.9068 748.198 91.8152 738.694L91.4893 682.117Z"/><path fill="#EB4F3F" d="M525.208 255.507L647.82 255.448C670.218 255.438 693.548 254.906 715.815 256.365C756.463 259.029 800.784 281.848 827.176 313.053C840.315 325.744 853.307 338.585 866.15 351.574C876.097 361.679 884.849 369.939 893.814 380.907C916.026 408.078 932.413 448.797 932.634 484.04C932.832 515.565 932.654 547.849 932.63 579.602L932.597 618.341C932.591 625.947 932.797 634.985 932.335 642.505C929.388 690.407 911.298 736.199 878.1 771.098C843.677 807.285 791.616 831.208 741.569 831.851C719.643 832.132 696.873 831.849 674.812 831.822L576.676 831.658C569.014 820.666 536.328 777.64 527.362 771.27C526.28 771.382 526.556 771.322 525.433 771.046C524.423 767.628 524.987 741.361 525.006 736.399C525.078 718.208 524.679 699.65 524.908 681.476L524.804 538.921L524.646 500.78C524.617 495.999 524.858 485.542 524.092 481.233C524.87 464.828 524.278 448.189 524.487 431.755C524.552 426.554 524.518 421.118 524.246 415.929C526.121 411.891 525.658 271.721 525.208 255.507Z"/><path fill="#194955" d="M827.176 313.053C840.315 325.744 853.307 338.585 866.15 351.574C876.097 361.679 884.849 369.939 893.814 380.907C916.026 408.078 932.413 448.797 932.634 484.04C932.832 515.565 932.654 547.849 932.63 579.602L932.597 618.341C932.591 625.947 932.797 634.985 932.335 642.505C929.388 690.407 911.298 736.199 878.1 771.098C843.677 807.285 791.616 831.208 741.569 831.851C719.643 832.132 696.873 831.849 674.812 831.822L576.676 831.658C569.014 820.666 536.328 777.64 527.362 771.27C526.28 771.382 526.556 771.322 525.433 771.046C524.423 767.628 524.987 741.361 525.006 736.399C525.078 718.208 524.679 699.65 524.908 681.476L766.612 681.155C776.016 681.134 843.547 680.135 847.411 681.47C858.855 662.801 865.877 646.972 871.153 625.73C877.197 601.398 876.052 581.671 876.023 556.969L876.014 500.968L876.035 453.653C876.037 442.541 876.287 431.09 875.379 420.043C874.496 409.208 872.401 398.506 869.132 388.137C862.572 367.391 853.833 348.985 841.124 331.264C837.1 325.652 830.418 318.7 827.176 313.053Z"/><path fill="#FEAE3A" d="M524.908 681.476L766.612 681.155C776.016 681.134 843.547 680.135 847.411 681.47C825.779 719.538 775.124 754.54 733.412 765.987C705.659 773.603 674.405 771.286 645.769 771.268L566.661 771.234L540.051 771.107C537.33 771.099 529.781 770.927 527.362 771.27C526.28 771.382 526.556 771.322 525.433 771.046C524.423 767.628 524.987 741.361 525.006 736.399C525.078 718.208 524.679 699.65 524.908 681.476Z"/><path fill="#194955" d="M623.696 348.593C667.457 349.558 714.168 342.255 748.993 374.621C763.068 387.702 775.204 408.434 775.868 428.005C777.878 434.564 777.072 481.672 777.058 492.047L777.033 546.356C777.014 586.577 778.277 633.1 731.059 646.964C718.798 650.564 704.368 650.075 691.628 649.964L623.537 650.055L623.696 348.593Z"/></svg>